<svg width="644" height="624" viewBox="0 0 644 624" fill="none" xmlns="http://www.w3.org/2000/svg">
<path d="M321.723 624C499.405 624 643.445 540.838 643.445 438.253C643.445 335.667 499.405 252.505 321.723 252.505C144.04 252.505 0 335.667 0 438.253C0 540.838 144.04 624 321.723 624Z" fill="#F0F0F0"/>
<path d="M506.487 502.704C485.39 490.524 485.39 470.779 506.487 458.598C527.583 446.418 561.789 446.418 582.886 458.598C603.983 470.779 603.983 490.524 582.886 502.704C561.789 514.884 527.583 514.884 506.487 502.704Z" fill="#E0E0E0"/>
<path d="M77.3934 504.397L21.8999 472.363C18.7729 470.56 18.7729 467.624 21.8999 465.822L344.688 279.46C346.442 278.571 348.381 278.108 350.348 278.108C352.314 278.108 354.253 278.571 356.008 279.46L411.515 311.494C414.642 313.297 414.642 316.233 411.515 318.035L88.7269 504.397C86.9702 505.286 85.029 505.749 83.0601 505.749C81.0913 505.749 79.15 505.286 77.3934 504.397Z" fill="#E0E0E0"/>
<path d="M276.866 447.292L324.576 419.709C329.492 416.869 331.95 413.155 331.95 409.427C331.95 405.7 331.95 402.791 331.95 402.791L282.465 374.88C281.082 373.987 279.931 372.778 279.105 371.354C278.279 369.93 277.802 368.331 277.713 366.687V307.849L194.418 355.996V414.807C194.514 416.449 194.994 418.046 195.819 419.469C196.644 420.892 197.792 422.102 199.17 423L241.282 447.251C251.086 452.973 267.035 452.973 276.866 447.292Z" fill="#BA68C8"/>
<g opacity="0.6">
<path d="M276.866 447.292L324.576 419.709C329.492 416.869 331.95 413.155 331.95 409.427C331.95 405.7 331.95 402.791 331.95 402.791L282.465 374.88C281.082 373.987 279.931 372.778 279.105 371.354C278.279 369.93 277.802 368.331 277.713 366.687V307.849L194.418 355.996V414.807C194.514 416.449 194.994 418.046 195.819 419.469C196.644 420.892 197.792 422.102 199.17 423L241.282 447.251C251.086 452.973 267.035 452.973 276.866 447.292Z" fill="black"/>
</g>
<path opacity="0.3" d="M214.393 425.226V431.835L199.127 423.027C197.749 422.13 196.603 420.92 195.78 419.497C194.956 418.073 194.48 416.476 194.389 414.835V355.996L210.256 346.833C210.583 350.861 210.938 355.026 211.28 359.123L200.124 365.54V411.489C200.212 413.133 200.689 414.733 201.515 416.157C202.341 417.581 203.493 418.789 204.876 419.682L214.393 425.226Z" fill="black"/>
<path d="M200.125 411.503C200.219 413.145 200.698 414.743 201.523 416.166C202.349 417.59 203.498 418.799 204.877 419.696L241.226 440.642C251.058 446.309 267.007 446.323 276.852 440.642L324.644 413.059C334.489 407.379 334.489 398.176 324.644 392.495L288.267 371.549C286.891 370.649 285.746 369.439 284.923 368.016C284.1 366.593 283.622 364.997 283.529 363.356V317.393L200.234 365.54L200.125 411.503Z" fill="#BA68C8"/>
<path opacity="0.3" d="M200.125 411.503C200.219 413.145 200.698 414.743 201.523 416.166C202.349 417.59 203.498 418.799 204.877 419.696L241.226 440.642C251.058 446.309 267.007 446.323 276.852 440.642L324.644 413.059C334.489 407.379 334.489 398.176 324.644 392.495L288.267 371.549C286.891 370.649 285.746 369.439 284.923 368.016C284.1 366.593 283.622 364.997 283.529 363.356V317.393L200.234 365.54L200.125 411.503Z" fill="black"/>
<path opacity="0.5" d="M297.892 377.161L288.211 371.576C286.835 370.676 285.689 369.467 284.866 368.044C284.043 366.621 283.566 365.024 283.473 363.383V317.393L200.178 365.54V411.503C200.272 413.145 200.751 414.743 201.576 416.166C202.402 417.59 203.55 418.799 204.93 419.696L214.488 425.158L297.892 377.161Z" fill="black"/>
<path d="M331.963 402.805V409.441C331.963 413.169 329.491 416.869 324.589 419.723L276.797 447.292C271.567 450.084 265.726 451.534 259.797 451.512V444.903C265.726 444.925 271.567 443.475 276.797 440.683L324.589 413.087C329.491 410.26 331.963 406.532 331.963 402.805Z" fill="#BA68C8"/>
<path opacity="0.5" d="M331.963 402.805V409.441C331.963 413.169 329.491 416.869 324.589 419.723L276.797 447.292C271.567 450.084 265.726 451.534 259.797 451.512V444.903C265.726 444.925 271.567 443.475 276.797 440.683L324.589 413.087C329.491 410.26 331.963 406.532 331.963 402.805Z" fill="black"/>
<path d="M66.3077 468.621C68.1084 469.491 70.0882 469.925 72.0876 469.89C74.087 469.854 76.0501 469.349 77.8187 468.416L400.074 282.368C401.802 281.241 403.24 279.723 404.272 277.937C405.304 276.151 405.901 274.146 406.014 272.086V11.3873C405.952 9.38327 405.418 7.42218 404.454 5.66383C403.491 3.90549 402.126 2.39965 400.47 1.26903C398.672 0.398337 396.693 -0.0356705 394.695 0.00229247C392.697 0.0402555 390.737 0.549117 388.973 1.48751L66.7173 187.59C64.9954 188.724 63.5659 190.249 62.5455 192.041C61.5251 193.832 60.9427 195.84 60.8457 197.899V458.557C60.9066 460.545 61.4324 462.491 62.3809 464.238C63.3295 465.986 64.6743 467.487 66.3077 468.621Z" fill="#BA68C8"/>
<path d="M77.8617 468.403L400.117 282.355C401.847 281.23 403.287 279.712 404.319 277.926C405.352 276.139 405.947 274.133 406.057 272.073V11.3873C406.057 7.60485 403.394 6.06185 400.117 7.95988L77.8617 194.008C76.1331 195.134 74.6943 196.652 73.6622 198.438C72.6302 200.225 72.0339 202.23 71.9219 204.29V464.975C71.9219 468.758 74.5846 470.301 77.8617 468.403Z" fill="#BA68C8"/>
<path opacity="0.5" d="M77.8617 468.403L400.117 282.355C401.847 281.23 403.287 279.712 404.319 277.926C405.352 276.139 405.947 274.133 406.057 272.073V11.3873C406.057 7.60485 403.394 6.06185 400.117 7.95988L77.8617 194.008C76.1331 195.134 74.6943 196.652 73.6622 198.438C72.6302 200.225 72.0339 202.23 71.9219 204.29V464.975C71.9219 468.758 74.5846 470.301 77.8617 468.403Z" fill="black"/>
<path d="M76.9858 475.175C75.2959 475.913 73.4662 476.275 71.6227 476.238C69.7793 476.2 67.9659 475.763 66.3077 474.957C64.6707 473.82 63.3236 472.315 62.3749 470.562C61.4262 468.809 60.9024 466.858 60.8457 464.866V441.134L71.9744 447.579V471.311C71.9062 474.766 74.1046 476.336 76.9858 475.175Z" fill="#BA68C8"/>
<path opacity="0.5" d="M76.9858 475.175C75.2959 475.913 73.4662 476.275 71.6227 476.238C69.7793 476.2 67.9659 475.763 66.3077 474.957C64.6707 473.82 63.3236 472.315 62.3749 470.562C61.4262 468.809 60.9024 466.858 60.8457 464.866V441.134L71.9744 447.579V471.311C71.9062 474.766 74.1046 476.336 76.9858 475.175Z" fill="black"/>
<path d="M71.9082 447.579V471.311C71.9082 475.093 74.6392 476.623 77.8481 474.738L400.103 288.691C401.824 287.569 403.258 286.059 404.289 284.283C405.321 282.507 405.922 280.514 406.043 278.463V254.622L71.9082 447.579Z" fill="#BA68C8"/>
<path opacity="0.3" d="M71.9219 447.524V471.311C71.9219 475.093 74.6528 476.623 77.8617 474.738L400.117 288.691C401.835 287.567 403.266 286.057 404.296 284.281C405.325 282.505 405.923 280.512 406.043 278.463V254.622L71.9219 447.524Z" fill="black"/>
<path d="M83.0488 417.743V207.99C83.1124 206.755 83.4671 205.551 84.0841 204.479C84.7011 203.406 85.5628 202.495 86.5991 201.818L391.294 25.8479C393.26 24.7146 394.858 25.6295 394.858 27.8962V237.758C394.792 238.995 394.435 240.198 393.815 241.271C393.196 242.343 392.332 243.255 391.294 243.93L86.6128 419.86C84.6465 420.993 83.0488 420.064 83.0488 417.743Z" fill="#BA68C8"/>
<path d="M83.0488 417.743V207.99C83.1124 206.755 83.4671 205.551 84.0841 204.479C84.7011 203.406 85.5628 202.495 86.5991 201.818L391.294 25.8479C393.26 24.7146 394.858 25.6295 394.858 27.8962V237.758C394.792 238.995 394.435 240.198 393.815 241.271C393.196 242.343 392.332 243.255 391.294 243.93L86.6128 419.86C84.6465 420.993 83.0488 420.064 83.0488 417.743Z" fill="#263238"/>
<path d="M238.972 358.658C237.35 359.713 236 361.136 235.032 362.811C234.063 364.487 233.505 366.367 233.4 368.299C233.4 371.849 235.899 373.296 238.972 371.521C240.595 370.465 241.946 369.04 242.915 367.362C243.883 365.684 244.441 363.802 244.543 361.867C244.543 358.317 242.044 356.883 238.972 358.658Z" fill="#BA68C8"/>
<path opacity="0.7" d="M73.6676 198.418C72.6094 200.197 72.0045 202.209 71.9062 204.276V447.579L60.8457 441.134V197.899C60.9173 195.825 61.5191 193.804 62.5935 192.028L73.6676 198.418Z" fill="black"/>
<path opacity="0.3" d="M405.987 10.4041C405.563 7.34543 403.092 6.30766 400.101 7.9599L77.8461 194.008C76.0989 195.1 74.6568 196.618 73.6541 198.418L62.5117 191.987C63.5211 190.187 64.9674 188.67 66.7174 187.576L388.973 1.5421C390.739 0.603581 392.702 0.094695 394.702 0.0567353C396.702 0.0187756 398.683 0.452811 400.484 1.32363C401.998 2.35506 403.272 3.69952 404.222 5.2661C405.171 6.83267 405.773 8.58484 405.987 10.4041Z" fill="black"/>
<path d="M423.368 42.493C422.89 42.2528 422.354 42.1475 421.82 42.1884C421.286 42.2293 420.773 42.4149 420.337 42.7252L116.27 218.382C115.07 219.175 114.074 220.24 113.362 221.49C112.651 222.741 112.243 224.141 112.174 225.578V434.047C112.131 434.751 112.271 435.453 112.579 436.087C112.888 436.721 113.355 437.265 113.935 437.665C114.604 438.034 118.182 440.11 119.247 440.683C119.624 440.875 120.045 440.964 120.467 440.94C120.889 440.916 121.297 440.78 121.65 440.547L425.649 264.89C426.848 264.096 427.845 263.031 428.556 261.781C429.268 260.531 429.675 259.131 429.745 257.694V48.1462C429.806 47.6166 429.718 47.0806 429.492 46.5982C429.265 46.1158 428.908 45.7061 428.462 45.4152C427.779 44.9646 424.133 42.9436 423.368 42.493Z" fill="#BA68C8"/>
<path d="M121.581 221.331L425.661 45.7428C427.955 44.3774 429.758 45.4971 429.758 48.1461V257.694C429.688 259.131 429.281 260.531 428.569 261.781C427.857 263.031 426.861 264.096 425.661 264.89L121.581 440.546C119.287 441.912 117.484 439.714 117.484 437.064V228.527C117.556 227.091 117.965 225.691 118.676 224.442C119.388 223.192 120.383 222.126 121.581 221.331Z" fill="#FAFAFA"/>
<path d="M427.518 46.5349C428.324 46.5349 428.447 47.5454 428.447 48.1462V257.694C428.373 258.897 428.02 260.067 427.416 261.11C426.812 262.152 425.972 263.04 424.965 263.702L120.925 439.359C120.721 439.491 120.486 439.566 120.243 439.577C119.478 439.577 118.877 438.403 118.877 437.065V228.527C118.943 227.324 119.285 226.153 119.877 225.104C120.469 224.055 121.295 223.156 122.291 222.478L426.344 46.9173C426.696 46.6903 427.101 46.5585 427.518 46.5349ZM427.518 45.1694C426.86 45.1974 426.221 45.395 425.661 45.7429L121.581 221.331C120.383 222.126 119.388 223.192 118.676 224.442C117.965 225.691 117.556 227.091 117.484 228.527V437.065C117.484 439.167 118.659 440.943 120.215 440.943C120.697 440.933 121.169 440.797 121.581 440.547L425.648 264.89C426.848 264.096 427.844 263.031 428.555 261.781C429.267 260.531 429.674 259.131 429.744 257.694V48.1462C429.744 46.2618 428.816 45.1694 427.45 45.1694H427.518Z" fill="#E0E0E0"/>
<path d="M113.852 437.665C114.302 437.897 117.538 439.741 118.958 440.56C118.449 440.137 118.045 439.601 117.779 438.994C117.514 438.387 117.394 437.726 117.429 437.064V242.141L112.104 239.028V434.047C112.06 434.749 112.197 435.451 112.503 436.085C112.81 436.719 113.274 437.263 113.852 437.665Z" fill="#F0F0F0"/>
<path d="M429.812 48.1052C429.812 45.4834 427.942 44.4184 425.716 45.7429L121.581 221.331C120.383 222.126 119.388 223.192 118.676 224.442C117.965 225.691 117.556 227.091 117.484 228.527V242.182L429.812 61.7601V48.1052Z" fill="#BA68C8"/>
<g opacity="0.4">
<path d="M425.662 45.7428L121.582 221.317C120.361 222.087 119.356 223.153 118.659 224.417L113.375 221.345C114.07 220.125 115.067 219.105 116.27 218.381L420.337 42.725C420.772 42.4126 421.284 42.2246 421.818 42.1813C422.352 42.138 422.888 42.241 423.368 42.4792C424.106 42.9435 427.56 44.8961 428.448 45.3741C427.989 45.2038 427.495 45.1484 427.009 45.2126C426.524 45.2769 426.061 45.4589 425.662 45.7428Z" fill="white"/>
</g>
<path opacity="0.15" d="M112.102 239.041V225.509C112.158 224.035 112.595 222.6 113.371 221.345L118.67 224.403C117.904 225.637 117.476 227.049 117.427 228.5V242.155L112.102 239.041Z" fill="black"/>
<path d="M365.691 205.3L183.576 310.443C182.691 311.017 181.953 311.793 181.424 312.707C180.895 313.62 180.589 314.646 180.531 315.7V367.916C180.589 368.97 180.895 369.996 181.424 370.909C181.953 371.823 182.691 372.599 183.576 373.173L188.888 376.232C189.832 376.71 190.875 376.958 191.933 376.958C192.991 376.958 194.034 376.71 194.978 376.232L377.066 271.089C377.952 270.512 378.689 269.734 379.218 268.818C379.747 267.902 380.053 266.875 380.111 265.819V213.589C380.053 212.535 379.747 211.509 379.218 210.595C378.689 209.682 377.952 208.906 377.066 208.332L371.741 205.273C370.801 204.803 369.764 204.561 368.713 204.565C367.662 204.57 366.627 204.822 365.691 205.3Z" fill="#BA68C8"/>
<path opacity="0.5" d="M380.112 213.124C379.894 211.554 378.624 210.981 377.094 211.868L194.979 317.011C194.081 317.569 193.343 318.35 192.835 319.278L181.434 312.696C181.945 311.783 182.677 311.012 183.564 310.456L365.693 205.314C366.634 204.835 367.675 204.586 368.731 204.586C369.787 204.586 370.828 204.835 371.769 205.314L377.094 208.373C377.906 208.905 378.595 209.604 379.116 210.423C379.636 211.242 379.976 212.163 380.112 213.124Z" fill="white"/>
<path d="M194.459 376.491C193.568 376.843 192.612 377.003 191.654 376.96C190.697 376.918 189.759 376.674 188.902 376.246L183.576 373.187C182.692 372.611 181.956 371.835 181.427 370.921C180.898 370.008 180.591 368.983 180.531 367.93V315.714C180.572 314.648 180.882 313.61 181.432 312.696L192.834 319.277C192.28 320.18 191.97 321.21 191.933 322.268V374.498C191.933 376.232 193.025 377.038 194.459 376.491Z" fill="#263238"/>
<path d="M194.975 317.011L377.09 211.868C378.77 210.899 380.135 211.677 380.135 213.616V265.846C380.077 266.902 379.771 267.929 379.242 268.845C378.713 269.761 377.976 270.539 377.09 271.117L195.002 376.259C193.323 377.229 191.957 376.437 191.957 374.498V322.281C192.012 321.228 192.314 320.202 192.838 319.286C193.362 318.371 194.094 317.591 194.975 317.011Z" fill="#BA68C8"/>
<path d="M317.407 233.183L183.589 310.456C182.703 311.012 181.97 311.783 181.459 312.696L192.861 319.278C193.368 318.35 194.107 317.569 195.005 317.011L328.822 239.751L317.407 233.183Z" fill="#455A64"/>
<path d="M328.795 239.751L194.977 317.011C194.091 317.588 193.353 318.367 192.824 319.282C192.295 320.198 191.99 321.226 191.932 322.282V374.484C191.932 376.423 193.297 377.215 194.977 376.246L328.795 298.986V239.751Z" fill="#37474F"/>
<path d="M225.835 310.647L294.888 270.789C297.742 269.137 300.063 270.311 300.063 273.411C299.936 275.151 299.399 276.838 298.498 278.332C297.596 279.827 296.355 281.088 294.874 282.013L225.835 321.885C222.981 323.538 220.646 322.363 220.646 319.264C220.775 317.521 221.312 315.834 222.213 314.337C223.115 312.84 224.355 311.576 225.835 310.647Z" fill="#BA68C8"/>
<path d="M239.985 323.852C239.997 323.837 240.013 323.826 240.031 323.818C240.048 323.81 240.068 323.806 240.087 323.806C240.106 323.806 240.126 323.81 240.143 323.818C240.161 323.826 240.177 323.837 240.189 323.852C240.251 323.945 240.279 324.055 240.271 324.166V331.936C240.272 332.686 240.208 333.435 240.08 334.175C239.967 334.851 239.775 335.511 239.507 336.141C239.262 336.719 238.94 337.261 238.551 337.753C238.167 338.209 237.704 338.592 237.185 338.886C236.779 339.151 236.305 339.293 235.82 339.296C235.635 339.281 235.454 339.228 235.29 339.142C235.125 339.055 234.981 338.935 234.864 338.79C234.564 338.389 234.367 337.92 234.291 337.425C234.16 336.764 234.1 336.091 234.113 335.418V327.634C234.113 327.498 234.14 327.363 234.195 327.238C234.228 327.126 234.301 327.029 234.4 326.965L235.26 326.46C235.288 326.434 235.324 326.42 235.362 326.42C235.4 326.42 235.437 326.434 235.465 326.46C235.528 326.552 235.557 326.663 235.547 326.774V334.448C235.536 334.87 235.578 335.292 235.67 335.704C235.707 335.968 235.821 336.215 235.997 336.414C236.059 336.488 236.136 336.545 236.224 336.583C236.312 336.621 236.407 336.638 236.503 336.633C236.736 336.617 236.962 336.542 237.158 336.414C237.401 336.269 237.622 336.09 237.813 335.882C238.027 335.636 238.202 335.36 238.332 335.063C238.486 334.712 238.601 334.346 238.674 333.97C238.753 333.519 238.79 333.062 238.783 332.605V324.917C238.787 324.78 238.82 324.645 238.879 324.521C238.912 324.408 238.985 324.312 239.083 324.248L239.985 323.852Z" fill="#FAFAFA"/>
<path d="M245.337 331.198C245.344 331.098 245.32 330.998 245.268 330.911C245.236 330.876 245.195 330.849 245.15 330.832C245.105 330.815 245.057 330.81 245.009 330.816C244.841 330.793 244.671 330.793 244.504 330.816L243.712 330.966C243.456 331.03 243.189 331.03 242.933 330.966C242.733 330.901 242.56 330.772 242.442 330.597C242.308 330.376 242.22 330.13 242.182 329.874C242.049 329.142 242.049 328.393 242.182 327.661C242.285 327.242 242.431 326.835 242.619 326.446C242.806 326.058 243.035 325.692 243.302 325.354C243.56 325.032 243.875 324.759 244.231 324.548C244.518 324.373 244.839 324.261 245.173 324.22C245.415 324.195 245.659 324.248 245.869 324.371C246.069 324.493 246.227 324.674 246.32 324.89C246.43 325.144 246.49 325.418 246.497 325.695C246.511 325.832 246.483 325.971 246.415 326.091C246.382 326.204 246.309 326.301 246.211 326.364L245.391 326.842C245.354 326.864 245.311 326.875 245.268 326.875C245.225 326.875 245.183 326.864 245.145 326.842L244.968 326.706C244.897 326.65 244.812 326.617 244.722 326.61C244.547 326.63 244.378 326.69 244.231 326.788C244.016 326.917 243.827 327.083 243.671 327.279C243.505 327.494 243.419 327.759 243.425 328.03C243.406 328.134 243.406 328.24 243.425 328.344C243.451 328.383 243.485 328.415 243.526 328.439C243.566 328.462 243.611 328.477 243.657 328.481C243.806 328.506 243.958 328.506 244.108 328.481L244.872 328.344C245.514 328.221 245.951 328.344 246.238 328.699C246.539 329.205 246.677 329.792 246.634 330.379C246.63 330.785 246.575 331.188 246.47 331.58C246.362 332.006 246.206 332.419 246.006 332.809C245.805 333.214 245.553 333.59 245.255 333.929C244.972 334.261 244.635 334.543 244.258 334.762C243.958 334.954 243.616 335.071 243.261 335.103C243.004 335.112 242.751 335.041 242.537 334.899C242.327 334.755 242.165 334.55 242.073 334.311C241.963 334.052 241.907 333.774 241.909 333.492C241.896 333.351 241.925 333.208 241.991 333.082C242.025 332.97 242.097 332.873 242.196 332.809L243.015 332.331C243.125 332.331 243.206 332.263 243.261 332.331L243.439 332.523C243.475 332.563 243.519 332.596 243.568 332.62C243.617 332.643 243.671 332.657 243.725 332.659C243.918 332.66 244.105 332.598 244.258 332.482C244.504 332.342 244.726 332.162 244.913 331.949C245.006 331.837 245.084 331.713 245.145 331.58C245.242 331.472 245.308 331.34 245.337 331.198Z" fill="#FAFAFA"/>
<path d="M248.12 327.498C248.117 326.788 248.176 326.08 248.297 325.381C248.411 324.724 248.589 324.079 248.83 323.456C249.03 322.898 249.306 322.369 249.649 321.886C249.935 321.47 250.308 321.12 250.741 320.861C251.058 320.649 251.444 320.566 251.82 320.629C252.154 320.707 252.446 320.906 252.639 321.189C252.896 321.56 253.077 321.977 253.172 322.418C253.303 322.991 253.367 323.578 253.363 324.166V325.013C253.367 325.155 253.334 325.296 253.267 325.422C253.234 325.535 253.161 325.632 253.063 325.695L249.512 327.757C249.504 327.998 249.536 328.238 249.608 328.467C249.661 328.622 249.755 328.759 249.881 328.863C249.993 328.952 250.134 328.996 250.277 328.986C250.442 328.967 250.601 328.911 250.741 328.822C250.948 328.71 251.133 328.562 251.288 328.385C251.427 328.228 251.547 328.054 251.643 327.866C251.701 327.759 251.765 327.654 251.834 327.552C251.892 327.483 251.961 327.423 252.039 327.375L252.885 326.883C252.914 326.86 252.95 326.847 252.988 326.847C253.025 326.847 253.061 326.86 253.09 326.883C253.126 326.926 253.152 326.977 253.166 327.031C253.18 327.085 253.182 327.142 253.172 327.197C253.157 327.464 253.102 327.726 253.008 327.976C252.89 328.354 252.735 328.72 252.544 329.068C252.33 329.468 252.074 329.843 251.779 330.188C251.485 330.54 251.134 330.84 250.741 331.075C250.419 331.287 250.032 331.378 249.649 331.335C249.313 331.254 249.02 331.049 248.83 330.761C248.561 330.347 248.38 329.882 248.297 329.396C248.173 328.771 248.113 328.135 248.12 327.498ZM250.741 323.142C250.531 323.255 250.349 323.414 250.209 323.606C250.057 323.797 249.933 324.009 249.84 324.234C249.744 324.46 249.667 324.693 249.608 324.931C249.56 325.146 249.528 325.365 249.512 325.586L251.916 324.221C251.902 324.032 251.874 323.845 251.834 323.661C251.813 323.496 251.747 323.34 251.643 323.21C251.602 323.151 251.549 323.101 251.488 323.064C251.427 323.026 251.359 323.001 251.288 322.992C251.093 322.975 250.9 323.028 250.741 323.142Z" fill="#FAFAFA"/>
<path d="M257.652 319.332C257.239 319.568 256.913 319.932 256.724 320.37C256.511 320.946 256.414 321.559 256.437 322.172V327.102C256.439 327.242 256.411 327.382 256.355 327.511C256.322 327.624 256.249 327.721 256.15 327.784L255.345 328.249C255.332 328.263 255.316 328.275 255.298 328.283C255.281 328.291 255.262 328.295 255.242 328.295C255.223 328.295 255.204 328.291 255.186 328.283C255.168 328.275 255.153 328.263 255.14 328.249C255.079 328.156 255.05 328.045 255.058 327.935V319.1C255.059 318.959 255.086 318.82 255.14 318.69C255.178 318.58 255.25 318.485 255.345 318.417L256.15 317.953C256.178 317.927 256.215 317.913 256.253 317.913C256.291 317.913 256.327 317.927 256.355 317.953C256.418 318.04 256.448 318.147 256.437 318.253V318.69C256.6 318.324 256.801 317.976 257.038 317.653C257.254 317.353 257.534 317.106 257.857 316.929L258.349 316.642C258.374 316.617 258.409 316.603 258.444 316.603C258.48 316.603 258.514 316.617 258.54 316.642C258.606 316.733 258.64 316.844 258.636 316.956V318.199C258.633 318.341 258.601 318.48 258.54 318.608C258.505 318.717 258.439 318.812 258.349 318.881L257.652 319.332Z" fill="#FAFAFA"/>
<path d="M267.839 318.677C267.852 318.662 267.867 318.65 267.885 318.642C267.903 318.635 267.922 318.63 267.941 318.63C267.961 318.63 267.98 318.635 267.998 318.642C268.015 318.65 268.031 318.662 268.044 318.677C268.105 318.769 268.134 318.88 268.126 318.991V320.356C268.125 320.497 268.097 320.636 268.044 320.766C267.997 320.867 267.927 320.956 267.839 321.025L263.169 323.756C263.141 323.782 263.105 323.797 263.067 323.797C263.029 323.797 262.992 323.782 262.964 323.756C262.903 323.669 262.874 323.562 262.882 323.456V311.166C262.883 311.026 262.911 310.887 262.964 310.757C263.002 310.65 263.074 310.559 263.169 310.497L264.029 309.992C264.057 309.966 264.094 309.952 264.132 309.952C264.17 309.952 264.206 309.966 264.234 309.992C264.295 310.08 264.324 310.186 264.316 310.293V320.684L267.839 318.677Z" fill="#FAFAFA"/>
<path d="M272.032 308.572C272.339 308.359 272.71 308.258 273.083 308.285C273.403 308.311 273.701 308.457 273.916 308.695C274.171 308.987 274.357 309.332 274.462 309.705C274.608 310.189 274.691 310.689 274.708 311.194C274.708 311.303 274.708 311.453 274.708 311.631V312.682C274.708 312.846 274.708 312.996 274.708 313.119C274.681 313.713 274.599 314.302 274.462 314.881C274.336 315.444 274.153 315.993 273.916 316.519C273.7 317.009 273.42 317.468 273.083 317.885C272.795 318.262 272.439 318.582 272.032 318.827C271.716 319.032 271.343 319.133 270.967 319.114C270.651 319.086 270.358 318.94 270.147 318.704C269.886 318.422 269.698 318.08 269.601 317.707C269.455 317.224 269.373 316.723 269.355 316.219C269.355 316.11 269.355 315.973 269.355 315.796V314.744C269.355 314.567 269.355 314.416 269.355 314.307C269.371 313.709 269.449 313.114 269.588 312.532C269.721 311.965 269.908 311.411 270.147 310.88C270.364 310.393 270.64 309.935 270.967 309.514C271.256 309.133 271.618 308.813 272.032 308.572ZM273.315 312.095C273.315 311.793 273.264 311.493 273.165 311.208C273.114 311.033 273.009 310.88 272.865 310.771C272.748 310.692 272.608 310.659 272.469 310.675C272.313 310.704 272.164 310.765 272.032 310.852C271.871 310.94 271.724 311.051 271.595 311.18C271.438 311.343 271.305 311.527 271.199 311.726C271.062 311.975 270.961 312.241 270.898 312.518C270.809 312.867 270.754 313.224 270.735 313.583C270.735 313.693 270.735 313.816 270.735 313.966V314.935C270.735 315.085 270.735 315.208 270.735 315.29C270.747 315.592 270.802 315.891 270.898 316.178C270.948 316.352 271.054 316.506 271.199 316.615C271.256 316.655 271.32 316.683 271.388 316.697C271.456 316.711 271.527 316.711 271.595 316.697C271.75 316.671 271.898 316.615 272.032 316.533C272.19 316.442 272.337 316.332 272.469 316.205C272.621 316.039 272.754 315.856 272.865 315.659C272.996 315.408 273.097 315.142 273.165 314.867C273.254 314.519 273.305 314.161 273.315 313.802C273.324 313.675 273.324 313.547 273.315 313.42V312.464C273.323 312.341 273.323 312.218 273.315 312.095Z" fill="#FAFAFA"/>
<path d="M278.885 316.56C279.06 316.454 279.217 316.32 279.35 316.164C279.514 315.972 279.656 315.761 279.773 315.536C279.909 315.262 280.014 314.973 280.087 314.676C280.171 314.341 280.212 313.997 280.21 313.652V312.955C280.21 313.092 280.073 313.256 279.978 313.447C279.884 313.647 279.775 313.838 279.65 314.02C279.507 314.212 279.352 314.395 279.186 314.567C279.014 314.746 278.816 314.898 278.599 315.017C278.458 315.113 278.3 315.179 278.133 315.212C277.967 315.245 277.795 315.244 277.629 315.208C277.326 315.113 277.065 314.915 276.892 314.649C276.669 314.296 276.508 313.908 276.414 313.502C276.297 312.986 276.233 312.46 276.223 311.931C276.223 311.754 276.223 311.535 276.223 311.276C276.223 311.016 276.223 310.798 276.223 310.607C276.24 310.006 276.304 309.408 276.414 308.818C276.526 308.237 276.686 307.666 276.892 307.111C277.085 306.629 277.332 306.171 277.629 305.746C277.881 305.369 278.212 305.052 278.599 304.817C278.78 304.708 278.979 304.629 279.186 304.585C279.339 304.556 279.497 304.556 279.65 304.585C279.771 304.619 279.883 304.68 279.978 304.762C280.065 304.829 280.143 304.907 280.21 304.995V304.558C280.211 304.417 280.238 304.278 280.292 304.148C280.33 304.041 280.402 303.95 280.497 303.888L281.302 303.411C281.33 303.385 281.367 303.37 281.405 303.37C281.443 303.37 281.479 303.385 281.507 303.411C281.573 303.502 281.607 303.612 281.603 303.725V312.6C281.639 313.93 281.393 315.252 280.879 316.478C280.476 317.443 279.778 318.255 278.885 318.8C278.581 318.989 278.233 319.097 277.875 319.114C277.592 319.131 277.31 319.059 277.069 318.909C276.838 318.736 276.651 318.512 276.523 318.253C276.39 317.942 276.316 317.609 276.305 317.27C276.292 317.129 276.32 316.986 276.387 316.861C276.42 316.748 276.493 316.651 276.591 316.588L277.315 316.178C277.332 316.16 277.352 316.146 277.374 316.136C277.396 316.127 277.42 316.122 277.445 316.122C277.469 316.122 277.493 316.127 277.515 316.136C277.538 316.146 277.558 316.16 277.574 316.178C277.642 316.249 277.701 316.327 277.752 316.41C277.835 316.556 277.972 316.664 278.134 316.71C278.298 316.833 278.544 316.697 278.885 316.56ZM277.602 309.938C277.602 310.302 277.602 310.657 277.602 311.003C277.563 311.548 277.718 312.09 278.039 312.532C278.16 312.637 278.315 312.694 278.476 312.694C278.636 312.694 278.791 312.637 278.913 312.532C279.309 312.274 279.618 311.903 279.8 311.467C280.049 310.897 280.188 310.286 280.21 309.665C280.21 309.46 280.21 309.214 280.21 308.927C280.21 308.64 280.21 308.395 280.21 308.217C280.238 307.728 280.093 307.245 279.8 306.852C279.679 306.74 279.521 306.679 279.356 306.679C279.192 306.679 279.034 306.74 278.913 306.852C278.524 307.108 278.22 307.474 278.039 307.903C277.758 308.545 277.61 309.237 277.602 309.938Z" fill="#FAFAFA"/>
<path d="M284.788 297.812C284.815 297.79 284.848 297.778 284.883 297.778C284.918 297.778 284.952 297.79 284.979 297.812C285.05 297.9 285.085 298.013 285.074 298.126V299.615C285.075 299.757 285.043 299.897 284.979 300.024C284.941 300.127 284.874 300.217 284.788 300.284L283.873 300.816C283.86 300.831 283.844 300.842 283.827 300.85C283.809 300.858 283.79 300.862 283.77 300.862C283.751 300.862 283.732 300.858 283.714 300.85C283.696 300.842 283.681 300.831 283.668 300.816C283.632 300.775 283.605 300.728 283.589 300.676C283.573 300.624 283.567 300.57 283.572 300.516V299.027C283.571 298.885 283.604 298.745 283.668 298.618C283.706 298.511 283.778 298.42 283.873 298.358L284.788 297.812ZM285.02 310.634C285.02 310.77 284.992 310.905 284.938 311.03C284.894 311.137 284.824 311.231 284.733 311.303L283.914 311.767C283.902 311.782 283.888 311.793 283.871 311.801C283.855 311.809 283.836 311.813 283.818 311.813C283.8 311.813 283.782 311.809 283.765 311.801C283.749 311.793 283.734 311.782 283.723 311.767C283.651 311.679 283.617 311.566 283.627 311.453V302.619C283.626 302.476 283.659 302.336 283.723 302.209C283.761 302.103 283.827 302.008 283.914 301.936L284.733 301.472C284.761 301.446 284.797 301.431 284.835 301.431C284.873 301.431 284.91 301.446 284.938 301.472C284.999 301.559 285.028 301.665 285.02 301.772V310.634Z" fill="#FAFAFA"/>
<path d="M292.201 306.469C292.2 306.61 292.172 306.749 292.119 306.879C292.081 306.985 292.009 307.076 291.914 307.138L291.095 307.616C291.069 307.641 291.035 307.655 290.999 307.655C290.963 307.655 290.929 307.641 290.903 307.616C290.832 307.528 290.798 307.415 290.808 307.302V302.496C290.85 301.928 290.746 301.36 290.508 300.843C290.316 300.502 290.016 300.447 289.593 300.693C289.17 300.977 288.857 301.396 288.705 301.881C288.477 302.525 288.366 303.205 288.377 303.888V308.709C288.377 308.849 288.349 308.988 288.295 309.118C288.262 309.231 288.189 309.328 288.091 309.391L287.285 309.856C287.272 309.87 287.256 309.882 287.239 309.89C287.221 309.898 287.202 309.902 287.183 309.902C287.163 309.902 287.144 309.898 287.126 309.89C287.109 309.882 287.093 309.87 287.08 309.856C287.017 309.769 286.988 309.662 286.998 309.555V300.721C286.996 300.58 287.024 300.44 287.08 300.311C287.114 300.198 287.186 300.101 287.285 300.038L288.091 299.574C288.103 299.559 288.119 299.547 288.137 299.539C288.154 299.531 288.174 299.527 288.193 299.527C288.212 299.527 288.232 299.531 288.249 299.539C288.267 299.547 288.283 299.559 288.295 299.574C288.357 299.666 288.385 299.777 288.377 299.888V300.311C288.557 299.895 288.777 299.497 289.033 299.123C289.258 298.778 289.562 298.492 289.92 298.29C290.231 298.063 290.618 297.965 290.999 298.017C291.15 298.055 291.292 298.124 291.414 298.221C291.536 298.317 291.637 298.439 291.709 298.577C291.907 298.946 292.037 299.349 292.091 299.765C292.164 300.308 292.201 300.855 292.201 301.403V306.469Z" fill="#FAFAFA"/>
<path d="M361.077 266.72L347.818 274.367L349.88 255.769C348.282 254.922 347.271 252.86 347.271 249.897C347.271 244.613 350.494 238.482 354.454 236.242C358.414 234.003 361.623 236.379 361.623 241.704C361.541 244.837 360.647 247.896 359.028 250.58L361.077 266.72Z" fill="#455A64"/>
<path d="M361.091 266.72L349.416 259.988L347.818 274.38L361.091 266.72Z" fill="#37474F"/>
<path d="M354.426 236.201C351.538 238.152 349.385 241.012 348.309 244.326L359 250.498C360.619 247.814 361.513 244.756 361.595 241.622C361.622 236.338 358.413 233.921 354.426 236.201Z" fill="#37474F"/>
<path d="M289.974 174.276C285.427 171.654 279.159 172.023 272.223 176.024C258.377 184.026 247.152 203.457 247.152 219.447C247.152 227.476 249.993 233.101 254.553 235.696L263.388 240.83C267.921 243.452 274.189 243.07 281.139 239.069C294.985 231.081 306.21 211.636 306.21 195.646C306.21 187.658 303.397 181.991 298.863 179.438" fill="#BA68C8"/>
<path d="M281.127 181.172C267.281 189.174 256.057 208.618 256.057 224.594C256.057 240.571 267.281 247.07 281.127 239.069C294.973 231.067 306.211 211.636 306.197 195.646C306.184 179.656 294.959 173.184 281.127 181.172Z" fill="#BA68C8"/>
<path d="M294.96 216.647V218.477C291.643 224.398 286.885 229.386 281.127 232.979C275.734 236.078 270.859 236.42 267.281 234.44V230.671C267.464 226.75 268.584 222.93 270.546 219.53C272.509 216.131 275.256 213.251 278.56 211.131L282.206 209.028C285.429 207.171 288.569 206.925 291.027 208.359C293.485 209.793 294.96 212.81 294.96 216.647Z" fill="#BA68C8"/>
<path opacity="0.4" d="M289.973 174.276L298.848 179.438C294.315 176.802 288.047 177.171 281.097 181.172C272.03 186.415 264.083 196.561 259.686 207.43L250.797 202.282C255.207 191.358 263.086 181.267 272.208 176.024C279.172 172.037 285.439 171.654 289.973 174.276Z" fill="white"/>
<path opacity="0.2" d="M263.074 240.625L254.567 235.696C250.006 233.102 247.166 227.503 247.166 219.447L256.055 224.608C256.11 232.391 258.732 237.935 263.074 240.625Z" fill="black"/>
<path opacity="0.1" d="M250.828 202.282L259.717 207.43C257.439 212.872 256.216 218.696 256.112 224.595L247.223 219.433C247.332 213.54 248.555 207.721 250.828 202.282Z" fill="black"/>
<path d="M277.958 208.168C277.111 208.177 276.277 207.96 275.541 207.539C274.655 206.949 273.944 206.129 273.485 205.168C273.026 204.206 272.835 203.138 272.933 202.078C273.049 199.59 273.759 197.166 275.004 195.009C276.249 192.852 277.992 191.024 280.088 189.679C280.93 189.007 281.956 188.604 283.03 188.524C284.104 188.444 285.178 188.69 286.11 189.23C287.043 189.77 287.79 190.579 288.256 191.55C288.721 192.522 288.882 193.612 288.718 194.677C288.6 197.164 287.889 199.587 286.644 201.744C285.4 203.901 283.658 205.728 281.563 207.075C280.479 207.752 279.235 208.129 277.958 208.168Z" fill="white"/>
<path d="M291.027 208.345C288.569 206.911 285.429 207.157 282.206 209.014L278.56 211.117C275.255 213.238 272.506 216.121 270.543 219.523C268.581 222.925 267.462 226.748 267.281 230.671V234.453C270.859 236.433 275.734 236.092 281.127 232.992C286.885 229.4 291.643 224.412 294.96 218.491V216.661C294.96 212.81 293.54 209.793 291.027 208.345Z" fill="white"/>
<path d="M571.744 444.575C571.744 444.575 573.56 428.626 581.494 416.241C589.427 403.856 600.324 396.141 610.497 395.335C620.67 394.53 628.89 403.897 618.007 410.356C607.124 416.814 587.789 423.342 578.886 447.374L571.744 444.575Z" fill="#BA68C8"/>
<path opacity="0.1" d="M571.744 444.575C571.744 444.575 573.56 428.626 581.494 416.241C589.427 403.856 600.324 396.141 610.497 395.335C620.67 394.53 628.89 403.897 618.007 410.356C607.124 416.814 587.789 423.342 578.886 447.374L571.744 444.575Z" fill="black"/>
<path d="M574.734 440.424H574.625C574.491 440.369 574.385 440.264 574.328 440.131C574.272 439.998 574.271 439.848 574.325 439.714C585.058 413.292 605.485 402.245 614.798 400.115C614.868 400.098 614.94 400.096 615.011 400.108C615.082 400.12 615.15 400.146 615.21 400.184C615.271 400.222 615.324 400.271 615.366 400.33C615.407 400.388 615.437 400.454 615.453 400.524C615.469 400.594 615.472 400.667 615.46 400.737C615.448 400.808 615.422 400.876 615.384 400.937C615.346 400.998 615.297 401.05 615.238 401.092C615.18 401.134 615.114 401.164 615.044 401.18C605.922 403.283 585.89 414.124 575.335 440.137C575.283 440.246 575.194 440.334 575.085 440.386C574.976 440.438 574.852 440.451 574.734 440.424Z" fill="white"/>
<path d="M629.052 440.738C628.137 442.813 625.871 443.906 623.768 444.752C621.665 445.599 619.371 446.514 618.224 448.48C615.93 452.44 619.699 458.039 617.241 461.876C616.662 462.648 615.933 463.296 615.098 463.779C614.262 464.262 613.338 464.572 612.38 464.689C610.809 464.975 609.212 464.975 607.628 465.112C606.869 465.102 606.112 465.043 605.361 464.934C603.154 464.442 600.847 464.687 598.793 465.631C595.639 467.406 594.696 471.379 592.757 474.452C591.573 476.261 590.012 477.793 588.18 478.943C586.349 480.093 584.291 480.834 582.148 481.115C580.782 481.293 578.051 481.552 576.686 480.747C576.579 480.694 576.478 480.63 576.385 480.555C576.18 480.337 575.935 480.05 575.825 479.9C575.818 479.869 575.818 479.836 575.825 479.804C575.266 477.743 576.18 475.612 576.221 473.482V473.1C576.126 470.628 576.057 468.171 576.003 465.713C575.885 461.161 575.839 456.609 575.866 452.058C575.866 449.108 575.539 445.886 576.795 443.114C578.16 440.055 581.601 439.987 582.899 436.996C583.417 435.795 583.691 434.525 584.196 433.31C584.977 431.543 586.227 430.024 587.812 428.919C589.396 427.814 591.253 427.165 593.181 427.042C599.175 426.742 604.542 431.589 610.536 431.138C612.079 431.016 613.595 430.538 615.124 430.265C619.972 429.35 625.584 430.729 628.315 434.839C628.914 435.685 629.295 436.667 629.424 437.696C629.552 438.725 629.425 439.77 629.052 440.738Z" fill="#BA68C8"/>
<path d="M575.227 470.342C575.098 470.303 574.989 470.217 574.923 470.099C574.856 469.982 574.838 469.844 574.872 469.714C583.147 438.662 615.837 434.211 623.525 434.73C623.592 434.733 623.658 434.75 623.719 434.78C623.78 434.809 623.835 434.851 623.879 434.902C623.924 434.953 623.958 435.012 623.979 435.076C624 435.141 624.008 435.208 624.002 435.276C623.989 435.409 623.924 435.531 623.822 435.618C623.721 435.704 623.59 435.748 623.456 435.74C615.96 435.208 583.953 439.591 575.855 469.987C575.817 470.116 575.73 470.225 575.613 470.291C575.496 470.357 575.358 470.376 575.227 470.342Z" fill="white"/>
<path d="M611.59 454.611C611.487 454.597 611.391 454.549 611.317 454.475C608.295 451.855 604.732 449.936 600.882 448.852C597.032 447.769 592.991 447.548 589.046 448.207C588.913 448.219 588.78 448.181 588.674 448.1C588.568 448.019 588.496 447.902 588.472 447.77C588.453 447.636 588.486 447.5 588.565 447.391C588.644 447.281 588.763 447.206 588.896 447.183C593.01 446.498 597.225 446.732 601.238 447.867C605.251 449.003 608.964 451.012 612.109 453.751C612.157 453.798 612.196 453.854 612.222 453.916C612.248 453.979 612.262 454.045 612.262 454.113C612.262 454.18 612.248 454.247 612.222 454.309C612.196 454.371 612.157 454.428 612.109 454.475C612.047 454.548 611.964 454.601 611.871 454.626C611.778 454.65 611.68 454.645 611.59 454.611Z" fill="white"/>
<path d="M496.6 69.5434L500.943 71.2093V61.6509C500.943 54.0588 506.992 52.2427 513.56 56.0387C520.141 59.8348 525.467 69.0518 525.467 76.6439V78.0094C526.382 77.7297 527.349 77.6606 528.295 77.8072C529.241 77.9538 530.141 78.3124 530.929 78.856C533.423 80.4822 535.498 82.6739 536.986 85.253C538.473 87.8321 539.331 90.7258 539.49 93.6989V94.327L545.553 97.8227C547.193 98.8933 548.559 100.335 549.538 102.031C550.518 103.727 551.085 105.63 551.193 107.586C551.193 111.191 548.666 112.652 545.553 110.849L496.6 82.5701C494.959 81.502 493.594 80.0606 492.616 78.3637C491.638 76.6668 491.076 74.7627 490.975 72.8069C490.975 69.2157 493.473 67.7546 496.6 69.5434Z" fill="#E6E6E6"/>
<path d="M554.755 61.9786L562.634 66.5256C562.591 66.1814 562.568 65.8348 562.566 65.4879V63.2075C562.566 59.111 565.406 57.4998 568.929 59.5343C570.443 60.4612 571.738 61.705 572.725 63.1802C573.299 58.0733 577.313 56.1752 582.174 58.9745C584.952 60.782 587.265 63.2186 588.926 66.0868C590.587 68.955 591.548 72.1741 591.733 75.4832V78.897C591.768 80.2609 591.492 81.6151 590.927 82.8569L597.482 86.6256C598.503 87.3031 599.351 88.2106 599.958 89.2754C600.566 90.3402 600.914 91.5326 600.977 92.7567C600.977 95.0097 599.393 95.9246 597.441 94.8049L554.755 70.2261C553.723 69.5535 552.864 68.6461 552.25 67.5782C551.635 66.5102 551.282 65.312 551.219 64.0814C551.219 61.7737 552.803 60.8589 554.755 61.9786Z" fill="#E6E6E6"/>
<path d="M524.252 269.219C518.517 278.914 513.001 287.339 509.123 291.381C501.763 294.794 484.476 300.065 477.716 300.939C476.529 301.09 475.327 300.809 474.33 300.147C471.667 298.399 469.605 298.113 466.806 297.143C464.608 296.392 463.679 295.341 463.27 295.778C462.846 296.274 462.634 296.915 462.677 297.566C462.721 298.216 463.016 298.824 463.502 299.26C464.552 300.257 465.716 301.128 466.97 301.854C463.972 302.598 460.844 302.654 457.821 302.018C451.963 300.475 449.205 303.288 453.165 309.651C454.53 311.918 460.156 315.564 471.463 314.58C475.496 314.363 479.513 313.907 483.492 313.215C494.334 310.894 506.392 308.654 513.806 306.387C516.564 305.303 519.033 303.592 521.016 301.39C533.483 287.175 537.62 277.043 543.082 267.84L542.618 252.819C533.77 252.519 529.045 261.108 524.252 269.219Z" fill="#FFA8A7"/>
<path d="M544.132 252.519C541.566 252.158 538.951 252.506 536.568 253.524C534.186 254.542 532.127 256.192 530.614 258.295C524.551 266.065 513.818 284.717 513.818 284.717C513.818 284.717 517.328 294.071 526.804 295.641L542.029 275.077C542.029 275.077 549.239 260.794 544.132 252.519Z" fill="#455A64"/>
<path d="M577.054 462.176H567.127V479.873H577.054V462.176Z" fill="#FFA8A7"/>
<path d="M542.643 461.234L532.73 461.589L532.225 442.855L542.643 442.5V461.234Z" fill="#FFA8A7"/>
<path d="M578.447 308.982C578.447 318.841 576.999 398.271 576.999 398.271C577.218 401.111 579.73 406.355 579.225 417.265C578.474 432.081 577.477 471.024 577.477 471.024C575.773 471.896 573.893 472.369 571.979 472.407C570.065 472.445 568.168 472.047 566.43 471.243C566.43 471.243 558.374 416.623 556.599 401.999C555.042 389.177 551.055 346.738 551.055 346.738L545.689 396.906C546.826 402.288 547.239 407.799 546.917 413.291C546.453 420.119 543.258 455.458 543.258 455.458C541.543 456.469 539.62 457.078 537.635 457.236C535.65 457.395 533.655 457.099 531.801 456.373C531.801 456.373 526.148 403.119 526.039 396.865C525.903 389.764 529.344 308.9 529.344 308.9L578.447 308.982Z" fill="#37474F"/>
<path d="M567.128 474.766V473.291C566.172 473.714 563.974 482.481 560.027 486.222C556.901 489.199 552.64 492.626 551.548 495.944C550.455 499.262 557.488 501.297 560.423 500.765C563.81 500.136 569.709 497.638 571.184 495.303C572.658 492.968 573.355 489.581 574.556 487.888C575.758 486.195 578.53 484.31 579.172 482.344C579.372 480.504 579.181 478.643 578.612 476.882C578.148 475.052 577.656 473.045 577.055 473.223V474.342C575.655 475.491 573.895 476.11 572.085 476.09C570.637 476.213 567.114 475.913 567.128 474.766Z" fill="#263238"/>
<path d="M532.62 458.394C532.101 458.394 531.678 459.172 530.544 460.456C528.859 462.228 526.888 463.705 524.714 464.825C521 466.764 513.79 469.741 510.499 471.284C508.451 472.24 508.546 474.807 510.663 476.268C512.779 477.729 517.873 478.78 523.99 477.36C527.322 476.582 531.664 473.373 534.422 473.551C537.181 473.728 542.301 473.673 544.336 472.185C546.37 470.697 545.551 467.611 544.978 464.948C544.349 462.026 543.612 457.479 542.643 457.684V458.708C541.455 460.592 535.296 461.357 532.674 459.978L532.62 458.394Z" fill="#263238"/>
<path d="M551.055 346.738C545.891 345.047 541.17 342.225 537.236 338.477C537.236 338.477 539.967 343.679 547.833 348.527L546.139 393.328L551.055 346.738Z" fill="#263238"/>
<path d="M572.901 253.966C572.901 253.966 581.094 255.851 580.507 270.653L578.8 294.207V329.574C571.508 337.848 539.201 337.248 528.072 328.918C528.072 328.918 529.329 287.066 530.08 270.953C530.612 259.51 533.247 253.748 544.499 252.492L558.331 253.093L572.901 253.966Z" fill="#BA68C8"/>
<path d="M562.471 223.215C562.518 225.197 562.172 227.169 561.454 229.016C560.735 230.863 559.658 232.55 558.285 233.98C556.912 235.409 555.269 236.552 553.451 237.344C551.634 238.135 549.678 238.559 547.696 238.591C539.503 238.591 534.697 231.518 532.922 223.215C529.644 208.018 539.53 207.826 547.696 207.826C551.696 207.909 555.499 209.576 558.269 212.462C561.04 215.348 562.551 219.216 562.471 223.215Z" fill="#263238"/>
<path d="M570.008 229.429C570.008 229.429 567.742 240.516 566.827 242.346C566.251 243.447 565.273 244.284 564.096 244.681L564.26 236.884L570.008 229.429Z" fill="#263238"/>
<path d="M567.153 213.548C567.153 213.548 568.777 213.138 570.512 215.842C571.986 218.15 572.328 223.339 570.006 229.497L565.732 230.016L567.153 213.548Z" fill="#263238"/>
<path d="M568.725 215.801L573.968 215.897C574.004 215.558 573.969 215.215 573.867 214.89C573.764 214.565 573.595 214.265 573.37 214.009C573.146 213.752 572.871 213.545 572.563 213.4C572.254 213.255 571.919 213.175 571.578 213.166C570.862 213.176 570.174 213.451 569.647 213.937C569.12 214.423 568.792 215.087 568.725 215.801Z" fill="#263238"/>
<path d="M569.367 214.558L573.245 210.831C573.021 210.567 572.746 210.353 572.435 210.201C572.125 210.05 571.786 209.964 571.441 209.95C571.096 209.936 570.752 209.994 570.43 210.119C570.108 210.245 569.816 210.436 569.572 210.68C569.057 211.183 568.751 211.861 568.713 212.579C568.675 213.298 568.908 214.004 569.367 214.558Z" fill="#263238"/>
<path d="M564.449 229.947C565.309 230.48 566.524 228.773 567.589 227.612C568.655 226.452 571.959 225.387 573.68 229.155C575.4 232.924 572.464 236.652 570.006 237.881C565.596 240.066 564.203 236.884 564.203 236.884L563.834 254.444C557.635 264.003 543.571 263.702 548.637 253.98V248.641C546.553 248.987 544.436 249.097 542.328 248.969C538.887 248.423 536.729 245.596 535.678 241.718C534.012 235.491 533.37 230.466 534.79 218.218C536.347 204.809 551.34 204.659 559.369 210.025C567.398 215.391 564.449 229.947 564.449 229.947Z" fill="#FFA8A7"/>
<path d="M545.77 216.129C549.348 215.774 552.885 215.036 556.476 214.763C557.25 214.669 558.035 214.706 558.797 214.872C561.528 215.623 561.2 218.819 561.637 221.044C562.388 224.895 563.003 231.408 564.45 231.436C564.887 231.436 566.526 228.609 567.591 227.599C568.176 226.728 568.507 225.711 568.547 224.663C568.82 223.079 568.956 221.454 569.079 219.843C569.188 218.477 569.325 217.112 569.325 215.746C569.387 214.203 569.264 212.658 568.956 211.145C568.614 209.857 567.957 208.675 567.045 207.704L566.772 207.403C564.972 205.521 562.787 204.05 560.367 203.088C556.886 201.784 553.234 200.988 549.525 200.726C545.822 200.464 542.135 200.008 538.479 199.36C538.269 199.299 538.046 199.299 537.837 199.36C537.689 199.443 537.563 199.561 537.473 199.704C537.382 199.847 537.329 200.011 537.318 200.18C537.168 201.028 537.262 201.902 537.588 202.699C537.914 203.497 538.46 204.186 539.161 204.686C536.69 204.877 533.85 203.594 531.474 202.938C531.281 202.857 531.075 202.815 530.866 202.815C530.657 202.815 530.451 202.857 530.258 202.938C530.02 203.105 529.85 203.352 529.78 203.634C529.608 204.276 529.584 204.949 529.712 205.601C529.93 207.577 530.664 209.461 531.842 211.063C533.683 213.459 536.283 215.158 539.216 215.883C541.375 216.299 543.586 216.382 545.77 216.129Z" fill="#263238"/>
<path d="M548.652 248.641C548.652 248.641 556.326 247.03 559.003 245.541C560.597 244.669 561.891 243.337 562.717 241.718C562.314 243.344 561.595 244.875 560.6 246.224C558.648 248.846 548.652 250.757 548.652 250.757V248.641Z" fill="#F28F8F"/>
<path d="M550.495 227.94C550.48 228.362 550.633 228.772 550.919 229.081C551.206 229.391 551.603 229.575 552.024 229.592C552.359 229.62 552.694 229.546 552.986 229.38C553.277 229.213 553.512 228.963 553.659 228.661C553.806 228.359 553.858 228.02 553.809 227.688C553.76 227.356 553.612 227.047 553.384 226.801C553.156 226.554 552.858 226.382 552.531 226.308C552.204 226.233 551.862 226.259 551.55 226.383C551.237 226.506 550.97 226.72 550.781 226.998C550.593 227.276 550.494 227.605 550.495 227.94Z" fill="#263238"/>
<path d="M552.953 221.318L556.244 223.216C556.483 222.748 556.538 222.207 556.396 221.701C556.254 221.194 555.927 220.76 555.479 220.485C555.261 220.362 555.02 220.287 554.771 220.263C554.522 220.238 554.27 220.266 554.033 220.345C553.795 220.423 553.576 220.55 553.391 220.718C553.205 220.885 553.056 221.089 552.953 221.318Z" fill="#263238"/>
<path d="M549.335 239.014L545.826 240.38C545.897 240.62 546.016 240.844 546.177 241.037C546.337 241.229 546.536 241.387 546.76 241.5C546.984 241.612 547.229 241.678 547.479 241.692C547.73 241.706 547.98 241.668 548.216 241.581C548.693 241.376 549.075 240.996 549.283 240.519C549.491 240.042 549.51 239.504 549.335 239.014Z" fill="#F28F8F"/>
<path d="M536.375 222.724L539.379 220.321C539.245 220.111 539.067 219.932 538.859 219.795C538.651 219.658 538.416 219.567 538.17 219.527C537.924 219.487 537.672 219.5 537.431 219.563C537.19 219.627 536.965 219.741 536.771 219.897C536.37 220.238 536.107 220.714 536.034 221.235C535.961 221.756 536.083 222.286 536.375 222.724Z" fill="#263238"/>
<path d="M537.701 227.49C537.725 227.788 537.835 228.074 538.018 228.311C538.202 228.548 538.45 228.726 538.733 228.824C539.017 228.923 539.322 228.936 539.613 228.864C539.904 228.791 540.167 228.635 540.371 228.415C540.575 228.195 540.71 227.921 540.76 227.625C540.81 227.33 540.773 227.026 540.654 226.751C540.534 226.476 540.337 226.242 540.087 226.078C539.836 225.913 539.543 225.825 539.244 225.824C539.033 225.831 538.825 225.879 538.633 225.967C538.441 226.055 538.268 226.18 538.125 226.335C537.981 226.49 537.87 226.671 537.797 226.87C537.724 227.068 537.692 227.279 537.701 227.49Z" fill="#263238"/>
<path d="M545.936 226.206L545.759 235.915L540.242 234.658L545.936 226.206Z" fill="#F28F8F"/>
<path d="M414.93 307.521L423.491 302.578L426.878 298.468L418.33 303.411L414.93 307.521Z" fill="#BA68C8"/>
<path opacity="0.4" d="M414.93 307.521L423.491 302.578L426.878 298.468L418.33 303.411L414.93 307.521Z" fill="black"/>
<path d="M438.211 320.957L446.773 316.014L453.914 309.692L445.366 314.621L438.211 320.957Z" fill="#BA68C8"/>
<path opacity="0.4" d="M438.211 320.957L446.773 316.014L453.914 309.692L445.366 314.621L438.211 320.957Z" fill="black"/>
<path d="M510.939 338.012C512.963 340.726 514.188 343.951 514.476 347.325C512.46 344.606 511.236 341.383 510.939 338.012ZM530.834 338.272C527.953 318.677 517.425 299.301 504.89 292.05C498.868 288.568 493.297 288.445 488.832 291.053L480.775 295.696L480.325 295.969C479.966 296.166 479.619 296.385 479.287 296.624C478.625 297.08 478.004 297.591 477.43 298.154L477.157 298.413C476.911 298.659 476.652 298.946 476.419 299.219C476.187 299.492 475.832 299.915 475.559 300.284C474.979 301.047 474.455 301.85 473.989 302.687C473.743 303.11 473.511 303.561 473.292 304.053L402.929 263.443L394.381 268.372V273.834L395.105 274.244L395.787 274.64V275.732L394.422 276.538V279.706L404.759 301.554L414.972 307.466L418.372 303.37L427.385 308.763L432.56 317.625L438.268 320.916L445.409 314.58L454.176 319.646L457.125 331.813L471.859 340.334C472.587 343.43 473.499 346.48 474.59 349.469C474.685 349.769 474.808 350.083 474.931 350.424C479.819 363.26 487.589 374.252 496.356 379.318C497.406 379.941 498.507 380.476 499.646 380.916C500.249 381.155 500.864 381.361 501.49 381.53C502.036 381.676 502.582 381.799 503.128 381.899C504.853 382.213 506.62 382.213 508.345 381.899L509.055 381.721C509.394 381.653 509.727 381.557 510.051 381.435L510.816 381.134C511.087 381.037 511.347 380.913 511.594 380.766C511.847 380.657 512.093 380.533 512.332 380.397L512.687 380.178C512.751 380.157 512.811 380.125 512.864 380.083C514.817 378.963 519.623 376.178 520.934 375.44C527.434 371.671 531.64 362.14 531.64 348.663C531.629 345.184 531.359 341.711 530.834 338.272Z" fill="#BA68C8"/>
<path d="M508.436 354.548C505.05 352.596 502.319 346.806 502.319 341.617C502.319 336.428 505.05 333.793 508.436 335.732C511.823 337.671 514.54 343.474 514.54 348.677C514.54 353.879 511.809 356.501 508.436 354.548ZM522.269 343.201C519.401 323.62 508.873 304.23 496.324 296.993C490.507 293.634 485.127 293.388 480.758 295.696L480.307 295.969C479.948 296.166 479.602 296.385 479.269 296.624C478.608 297.08 477.986 297.591 477.412 298.153L477.139 298.413C476.893 298.659 476.634 298.945 476.402 299.219C476.17 299.492 475.815 299.915 475.542 300.284C474.962 301.047 474.437 301.85 473.971 302.687C473.725 303.11 473.493 303.561 473.275 304.052C472.002 306.692 471.083 309.488 470.544 312.368L394.363 268.372V273.834L395.087 274.244L395.77 274.64V275.732L394.404 276.538V279.706L404.741 301.554L414.955 307.466L418.355 303.37L427.367 308.763L432.542 317.625L438.25 320.916L445.392 314.58L454.158 319.646L457.107 331.813L471.855 340.333C472.583 343.43 473.495 346.48 474.586 349.469C474.681 349.769 474.804 350.083 474.927 350.424C479.816 363.26 487.585 374.252 496.352 379.318C497.402 379.941 498.503 380.476 499.642 380.916C500.245 381.155 500.86 381.36 501.486 381.53C502.032 381.676 502.578 381.799 503.124 381.899C504.849 382.213 506.616 382.213 508.341 381.899L509.051 381.721C509.39 381.653 509.724 381.557 510.047 381.435L510.812 381.134C511.083 381.037 511.343 380.913 511.59 380.766C511.843 380.656 512.089 380.533 512.328 380.397L512.683 380.178C512.747 380.157 512.807 380.125 512.86 380.083C519.087 376.15 523.088 366.756 523.088 353.606C523.065 350.122 522.791 346.645 522.269 343.201Z" fill="#BA68C8"/>
<path opacity="0.4" d="M514.541 348.663C514.541 353.866 511.81 356.501 508.438 354.548C505.065 352.596 502.32 346.82 502.32 341.617C502.32 336.415 505.051 333.779 508.438 335.732C509.413 336.325 510.262 337.105 510.937 338.026C511.23 341.398 512.454 344.622 514.473 347.339C514.523 347.778 514.546 348.221 514.541 348.663Z" fill="black"/>
<path opacity="0.4" d="M531.611 348.649C531.611 362.127 527.405 371.658 520.905 375.427C519.54 376.164 514.788 378.95 512.835 380.069C519.062 376.137 523.063 366.742 523.063 353.592C523.048 350.114 522.783 346.641 522.271 343.201C519.403 323.62 508.875 304.23 496.326 296.993C490.509 293.634 485.129 293.388 480.76 295.696L488.816 291.053C493.281 288.445 498.852 288.568 504.874 292.05C517.423 299.301 527.951 318.677 530.819 338.272C531.339 341.707 531.603 345.175 531.611 348.649Z" fill="white"/>
<path d="M523.061 353.565C523.061 366.715 519.061 376.109 512.834 380.042C514.787 378.922 519.593 376.137 520.904 375.399C527.404 371.631 531.609 362.1 531.609 348.622C531.609 348.131 531.609 347.625 531.609 347.12L523.061 352.063C523.048 352.596 523.061 353.087 523.061 353.565Z" fill="#BA68C8"/>
<path opacity="0.1" d="M523.061 353.565C523.061 366.715 519.061 376.109 512.834 380.042C514.787 378.922 519.593 376.137 520.904 375.399C527.404 371.631 531.609 362.1 531.609 348.622C531.609 348.131 531.609 347.625 531.609 347.12L523.061 352.063C523.048 352.596 523.061 353.087 523.061 353.565Z" fill="black"/>
<path opacity="0.15" d="M470.876 317.953V320.725L394.381 276.565L395.787 275.746V274.599L470.876 317.953Z" fill="black"/>
<path opacity="0.15" d="M470.876 319.1V320.725L394.381 276.565L395.787 275.746V275.732L470.876 319.1Z" fill="black"/>
<path opacity="0.15" d="M504.137 375.413C501.238 375.338 498.411 374.494 495.945 372.969C483.478 365.773 473.332 344.362 473.332 325.245C473.332 314.089 476.705 305.759 482.59 302.359C486.687 299.983 491.534 300.284 496.627 303.22C509.081 310.416 519.226 331.895 519.226 351.012C519.226 362.154 515.853 370.497 509.968 373.884C508.193 374.897 506.182 375.425 504.137 375.413ZM488.503 302.155C486.683 302.144 484.893 302.615 483.314 303.52C477.947 306.62 474.738 314.744 474.738 325.231C474.738 343.911 484.57 364.83 496.668 371.767C501.297 374.498 505.68 374.744 509.326 372.641C514.693 369.541 517.902 361.43 517.902 350.943C517.902 332.25 508.07 311.344 495.986 304.394C493.727 303.02 491.146 302.266 488.503 302.209V302.155Z" fill="black"/>
<path opacity="0.4" d="M473.222 304.025C471.949 306.665 471.031 309.461 470.491 312.341L394.311 268.345L402.859 263.416L473.222 304.025Z" fill="white"/>
<path d="M572.235 308.299C576.222 300.748 580.783 283.789 583.049 275.227C586.272 263.074 581.056 255.427 575.13 255.113C571.429 255.687 559.235 300.024 559.235 300.024C557.87 301.103 539.34 310.511 533.387 312.874C532.322 313.276 531.147 313.276 530.082 312.874C527.228 311.836 525.276 312.027 522.476 311.754C520.278 311.535 519.172 310.757 518.885 311.221C518.625 311.798 518.591 312.451 518.791 313.051C518.991 313.65 519.41 314.153 519.964 314.458C521.169 315.16 522.452 315.719 523.787 316.123C521.394 316.849 518.9 317.186 516.4 317.12C510.665 316.997 508.603 319.483 513.055 325.313C515.786 328.945 520.305 330.092 530.396 326.61C533.291 325.6 537.224 323.647 540.897 322.323C548.462 319.592 550.455 319.264 556.218 317.311C564.615 314.471 570.46 311.658 572.235 308.299Z" fill="#FFA8A7"/>
<path d="M572.903 253.966C576.385 254.444 579.73 255.223 581.792 258.063C583.854 260.903 585.506 264.89 583.485 275.746C581.938 283.38 579.866 290.899 577.286 298.249C577.286 298.249 569.175 301.718 560.559 292.924L566.485 270.011C566.485 270.011 567.441 255.113 572.903 253.966Z" fill="#455A64"/>
</svg>
