<svg width="260" height="67" viewBox="0 0 260 67" fill="none" xmlns="http://www.w3.org/2000/svg">
<path opacity="0.6" d="M35.166 41C35.166 44.3188 33.5618 47.3188 30.9993 49.3625C28.791 51.1625 25.8743 52.25 22.666 52.25C15.7702 52.25 10.166 47.2063 10.166 41C10.166 35.825 14.0827 31.4375 19.3743 30.1438C20.8118 33.4063 23.8952 35.9188 27.7077 36.8563C28.7493 37.1188 29.8535 37.25 30.9993 37.25C32.1452 37.25 33.2493 37.1188 34.291 36.8563C34.8535 38.1313 35.166 39.5375 35.166 41Z" fill="#250126"/>
<path d="M43.5 26C43.5 27.4625 43.1875 28.8688 42.625 30.1438C41.1875 33.4062 38.1042 35.9188 34.2917 36.8563C33.25 37.1188 32.1458 37.25 31 37.25C29.8542 37.25 28.75 37.1188 27.7083 36.8563C23.8958 35.9188 20.8125 33.4062 19.375 30.1438C18.8125 28.8688 18.5 27.4625 18.5 26C18.5 19.7938 24.1042 14.75 31 14.75C37.8958 14.75 43.5 19.7938 43.5 26Z" fill="#FF5C00"/>
<path opacity="0.4" d="M51.8333 41C51.8333 47.2063 46.2292 52.25 39.3333 52.25C36.125 52.25 33.2083 51.1625 31 49.3625C33.5625 47.3188 35.1667 44.3188 35.1667 41C35.1667 39.5375 34.8542 38.1313 34.2917 36.8563C38.1042 35.9188 41.1875 33.4063 42.625 30.1438C47.9167 31.4375 51.8333 35.825 51.8333 41Z" fill="#9F10A2"/>
<path d="M75.45 42.5L80.05 25H85.8L90.4 42.5H87L86.05 38.65H79.8L78.85 42.5H75.45ZM80.575 35.6H85.275L83.15 27.075H82.7L80.575 35.6ZM92.4947 42.5V25H99.6947C100.795 25 101.761 25.225 102.595 25.675C103.445 26.1083 104.103 26.725 104.57 27.525C105.053 28.325 105.295 29.275 105.295 30.375V30.725C105.295 31.8083 105.045 32.7583 104.545 33.575C104.061 34.375 103.395 35 102.545 35.45C101.711 35.8833 100.761 36.1 99.6947 36.1H95.7947V42.5H92.4947ZM95.7947 33.1H99.3697C100.153 33.1 100.786 32.8833 101.27 32.45C101.753 32.0167 101.995 31.425 101.995 30.675V30.425C101.995 29.675 101.753 29.0833 101.27 28.65C100.786 28.2167 100.153 28 99.3697 28H95.7947V33.1ZM107.683 42.5V30.1H110.783V31.5H111.233C111.416 31 111.716 30.6333 112.133 30.4C112.566 30.1667 113.066 30.05 113.633 30.05H115.133V32.85H113.583C112.783 32.85 112.124 33.0667 111.608 33.5C111.091 33.9167 110.833 34.5667 110.833 35.45V42.5H107.683ZM123.055 42.85C121.822 42.85 120.714 42.6 119.73 42.1C118.747 41.6 117.972 40.875 117.405 39.925C116.839 38.975 116.555 37.8333 116.555 36.5V36.1C116.555 34.7667 116.839 33.625 117.405 32.675C117.972 31.725 118.747 31 119.73 30.5C120.714 30 121.822 29.75 123.055 29.75C124.289 29.75 125.397 30 126.38 30.5C127.364 31 128.139 31.725 128.705 32.675C129.272 33.625 129.555 34.7667 129.555 36.1V36.5C129.555 37.8333 129.272 38.975 128.705 39.925C128.139 40.875 127.364 41.6 126.38 42.1C125.397 42.6 124.289 42.85 123.055 42.85ZM123.055 40.05C124.022 40.05 124.822 39.7417 125.455 39.125C126.089 38.4917 126.405 37.5917 126.405 36.425V36.175C126.405 35.0083 126.089 34.1167 125.455 33.5C124.839 32.8667 124.039 32.55 123.055 32.55C122.089 32.55 121.289 32.8667 120.655 33.5C120.022 34.1167 119.705 35.0083 119.705 36.175V36.425C119.705 37.5917 120.022 38.4917 120.655 39.125C121.289 39.7417 122.089 40.05 123.055 40.05ZM130.163 47.5V44.8H131.813C132.28 44.8 132.513 44.55 132.513 44.05V30.1H135.663V44.7C135.663 45.55 135.413 46.225 134.913 46.725C134.413 47.2417 133.746 47.5 132.913 47.5H130.163ZM134.088 28.65C133.521 28.65 133.038 28.4667 132.638 28.1C132.255 27.7333 132.063 27.25 132.063 26.65C132.063 26.05 132.255 25.5667 132.638 25.2C133.038 24.8333 133.521 24.65 134.088 24.65C134.671 24.65 135.155 24.8333 135.538 25.2C135.921 25.5667 136.113 26.05 136.113 26.65C136.113 27.25 135.921 27.7333 135.538 28.1C135.155 28.4667 134.671 28.65 134.088 28.65ZM144.802 42.85C143.569 42.85 142.477 42.5917 141.527 42.075C140.594 41.5417 139.861 40.8 139.327 39.85C138.811 38.8833 138.552 37.75 138.552 36.45V36.15C138.552 34.85 138.811 33.725 139.327 32.775C139.844 31.8083 140.569 31.0667 141.502 30.55C142.436 30.0167 143.519 29.75 144.752 29.75C145.969 29.75 147.027 30.025 147.927 30.575C148.827 31.1083 149.527 31.8583 150.027 32.825C150.527 33.775 150.777 34.8833 150.777 36.15V37.225H141.752C141.786 38.075 142.102 38.7667 142.702 39.3C143.302 39.8333 144.036 40.1 144.902 40.1C145.786 40.1 146.436 39.9083 146.852 39.525C147.269 39.1417 147.586 38.7167 147.802 38.25L150.377 39.6C150.144 40.0333 149.802 40.5083 149.352 41.025C148.919 41.525 148.336 41.9583 147.602 42.325C146.869 42.675 145.936 42.85 144.802 42.85ZM141.777 34.875H147.577C147.511 34.1583 147.219 33.5833 146.702 33.15C146.202 32.7167 145.544 32.5 144.727 32.5C143.877 32.5 143.202 32.7167 142.702 33.15C142.202 33.5833 141.894 34.1583 141.777 34.875ZM159.406 42.85C158.206 42.85 157.114 42.6 156.131 42.1C155.164 41.6 154.398 40.875 153.831 39.925C153.264 38.975 152.981 37.825 152.981 36.475V36.125C152.981 34.775 153.264 33.625 153.831 32.675C154.398 31.725 155.164 31 156.131 30.5C157.114 30 158.206 29.75 159.406 29.75C160.589 29.75 161.606 29.9583 162.456 30.375C163.306 30.7917 163.989 31.3667 164.506 32.1C165.039 32.8167 165.389 33.6333 165.556 34.55L162.506 35.2C162.439 34.7 162.289 34.25 162.056 33.85C161.823 33.45 161.489 33.1333 161.056 32.9C160.639 32.6667 160.114 32.55 159.481 32.55C158.848 32.55 158.273 32.6917 157.756 32.975C157.256 33.2417 156.856 33.65 156.556 34.2C156.273 34.7333 156.131 35.3917 156.131 36.175V36.425C156.131 37.2083 156.273 37.875 156.556 38.425C156.856 38.9583 157.256 39.3667 157.756 39.65C158.273 39.9167 158.848 40.05 159.481 40.05C160.431 40.05 161.148 39.8083 161.631 39.325C162.131 38.825 162.448 38.175 162.581 37.375L165.631 38.1C165.414 38.9833 165.039 39.7917 164.506 40.525C163.989 41.2417 163.306 41.8083 162.456 42.225C161.606 42.6417 160.589 42.85 159.406 42.85ZM172.564 42.5C171.748 42.5 171.081 42.25 170.564 41.75C170.064 41.2333 169.814 40.55 169.814 39.7V32.7H166.714V30.1H169.814V26.25H172.964V30.1H176.364V32.7H172.964V39.15C172.964 39.65 173.198 39.9 173.664 39.9H176.064V42.5H172.564ZM185.916 42.85C183.716 42.85 181.966 42.25 180.666 41.05C179.366 39.8333 178.716 38.1 178.716 35.85V31.65C178.716 29.4 179.366 27.675 180.666 26.475C181.966 25.2583 183.716 24.65 185.916 24.65C188.116 24.65 189.866 25.2583 191.166 26.475C192.466 27.675 193.116 29.4 193.116 31.65V35.85C193.116 38.1 192.466 39.8333 191.166 41.05C189.866 42.25 188.116 42.85 185.916 42.85ZM185.916 39.9C187.149 39.9 188.107 39.5417 188.791 38.825C189.474 38.1083 189.816 37.15 189.816 35.95V31.55C189.816 30.35 189.474 29.3917 188.791 28.675C188.107 27.9583 187.149 27.6 185.916 27.6C184.699 27.6 183.741 27.9583 183.041 28.675C182.357 29.3917 182.016 30.35 182.016 31.55V35.95C182.016 37.15 182.357 38.1083 183.041 38.825C183.741 39.5417 184.699 39.9 185.916 39.9Z" fill="#250126"/>
</svg>
